<?xml version="1.0" encoding="utf-8"?>
<!-- Generator: Adobe Illustrator 17.0.1, SVG Export Plug-In . SVG Version: 6.00 Build 0)  -->
<!DOCTYPE svg PUBLIC "-//W3C//DTD SVG 1.1//EN" "http://www.w3.org/Graphics/SVG/1.1/DTD/svg11.dtd">
<svg version="1.1" id="Layer_1" xmlns="http://www.w3.org/2000/svg" xmlns:xlink="http://www.w3.org/1999/xlink" x="0px" y="0px"
	 width="100px" height="100px" viewBox="0 0 100 100" enable-background="new 0 0 100 100" xml:space="preserve">
<g>
	<path fill="#357CC0" d="M16.507,74.285L4.115,25.35h17.012l5.671,30.453l5.67-30.453H49.55L37.089,74.285H16.507z M31.628,65.044
		l-4.831-2.311L20.077,26.68H5.726l8.331,4.761l7.98,33.603H31.628z M36.179,72.955L47.87,26.68H33.588l6.021,4.761l-7.981,33.603
		L36.179,72.955z"/>
	<path fill="#357CC0" d="M61.025,70.994c-3.57-2.939-5.74-7.351-5.811-13.091h15.192c0.069,4.62,4.13,5.671,6.511,5.11
		c1.399-0.35,2.38-1.4,2.38-2.73c0-1.26-0.91-2.8-3.851-4.271c-1.89-0.979-4.62-1.89-8.121-2.66c-3.29-0.84-6.16-2.1-8.33-3.99
		c-2.94-2.521-4.551-6.231-4.341-11.481C55.005,28.57,64.876,24.3,73.348,24.3c14.491,0,19.882,6.301,20.441,15.332H79.578
		c-0.07-3.57-3.501-4.69-6.021-4.41c-1.961,0.21-3.571,1.19-3.571,3.01s1.82,2.87,7.071,3.99c9.661,1.96,19.532,7.141,19.532,16.802
		c0,11.201-9.591,16.451-21.633,16.451C69.847,75.475,64.736,74.005,61.025,70.994z M85.879,65.324c0-1.82-4.761-3.99-6.301-2.24
		c-0.561,0.63-1.61,1.05-2.45,1.26c-2.73,0.49-7.142-0.42-7.911-5.11H56.896l7.561,4.761c2.311,4.48,7.981,5.391,10.921,5.391
		C79.088,69.385,83.568,67.704,85.879,65.324z M75.377,29.411c3.851,0.07,7.562,1.33,9.382,4.2l7.63,4.69
		c-1.05-7.631-6.3-12.741-19.041-12.741c-5.111,0-10.922,1.54-14.282,4.971c-1.33,1.96,4.48,3.43,5.11,2.52
		C66.486,30.46,70.687,29.34,75.377,29.411z M91.549,68.895c2.381-2.381,3.78-5.671,3.78-9.871c0-9.031-9.521-13.792-18.481-15.682
		c-6.23-1.26-8.261-2.52-8.261-5.11c0-0.98,0.49-1.96,1.189-2.66c0.98-0.98-3.99-3.92-5.601-2.521
		c-3.15,4.13-2.17,9.101,0.98,12.042c3.221,3.22,9.101,3.01,13.371,4.55c5.391,1.89,9.451,5.11,9.451,10.851
		c0,1.681-0.979,3.57-2.1,4.831C85.879,66.935,89.589,70.435,91.549,68.895z"/>
</g>
<path fill="#6BBE56" d="M85.879,65.324c0-1.82-4.761-3.99-6.301-2.24c-0.561,0.63-1.61,1.05-2.45,1.26
	c-2.73,0.49-7.142-0.42-7.911-5.11H56.896l7.561,4.761c2.311,4.48,7.981,5.391,10.921,5.391
	C79.088,69.385,83.568,67.704,85.879,65.324z"/>
<path fill="#6BBE56" d="M75.377,29.411c3.851,0.07,7.562,1.33,9.382,4.2l7.63,4.69c-1.05-7.631-6.3-12.741-19.041-12.741
	c-5.111,0-10.922,1.54-14.282,4.971c-1.33,1.96,4.48,3.43,5.11,2.52C66.486,30.46,70.687,29.34,75.377,29.411z"/>
<path fill="#6BBE56" d="M91.549,68.895c2.381-2.381,3.78-5.671,3.78-9.871c0-9.031-9.521-13.792-18.481-15.682
	c-6.23-1.26-8.261-2.52-8.261-5.11c0-0.98,0.49-1.96,1.189-2.66c0.98-0.98-3.99-3.92-5.601-2.521c-3.15,4.13-2.17,9.101,0.98,12.042
	c3.221,3.22,9.101,3.01,13.371,4.55c5.391,1.89,9.451,5.11,9.451,10.851c0,1.681-0.979,3.57-2.1,4.831
	C85.879,66.935,89.589,70.435,91.549,68.895z"/>
<polygon fill="#6BBE56" points="31.632,65.051 26.802,62.74 20.081,26.687 5.729,26.687 14.06,31.448 22.041,65.051 "/>
<polygon fill="#6BBE56" points="36.182,72.962 47.874,26.687 33.592,26.687 39.613,31.448 31.632,65.051 "/>
</svg>
